<svg width="40" height="40" viewBox="0 0 40 40" fill="none" xmlns="http://www.w3.org/2000/svg">
<path d="M20 0C31.2666 0 40 8.2528 40 19.4C40 30.5472 31.2666 38.8 20 38.8C17.9763 38.8 16.0348 38.5327 14.2106 38.0311C13.856 37.9335 13.4789 37.9612 13.1424 38.1098L9.1727 39.8621C8.1343 40.3205 6.9621 39.5819 6.9273 38.4474L6.8184 34.8894C6.805 34.4513 6.6078 34.0414 6.2811 33.7492C2.3896 30.2691 0 25.2307 0 19.4C0 8.2528 8.7334 0 20 0ZM7.99009 25.0734C7.42629 25.9679 8.52579 26.9759 9.36809 26.3367L15.6788 21.5473C16.1057 21.2233 16.6956 21.2216 17.1243 21.5431L21.7971 25.0477C23.1992 26.0994 25.2004 25.7301 26.135 24.2474L32.01 14.9265C32.5737 14.032 31.4742 13.024 30.6319 13.6632L24.3212 18.4526C23.8943 18.7766 23.3044 18.7783 22.8757 18.4567L18.203 14.9522C16.8008 13.9006 14.7996 14.2698 13.8651 15.7526L7.99009 25.0734Z" fill="white"/>
</svg>
